<?xml version="1.0" encoding="UTF-8"?>
<svg id="Layer_1" data-name="Layer 1" xmlns="http://www.w3.org/2000/svg" xmlns:xlink="http://www.w3.org/1999/xlink" viewBox="0 0 70 70">
  <defs>
    <style>
      .cls-1 {
        fill: url(#linear-gradient-2);
      }

      .cls-2 {
        fill: #fff;
      }

      .cls-3 {
        fill: url(#linear-gradient-3);
      }

      .cls-4 {
        fill: url(#linear-gradient);
      }
    </style>
    <linearGradient id="linear-gradient" x1="7.07" y1="1007.68" x2="64.09" y2="981.69" gradientTransform="translate(0 -952.95)" gradientUnits="userSpaceOnUse">
      <stop offset="0" stop-color="#905cfb"/>
      <stop offset=".16" stop-color="#6677f8"/>
      <stop offset=".38" stop-color="#3596f5"/>
      <stop offset=".54" stop-color="#17a9f3"/>
      <stop offset=".63" stop-color="#0cb0f2"/>
    </linearGradient>
    <linearGradient id="linear-gradient-2" x1="30.3" y1="981.09" x2="1.06" y2="955.27" gradientTransform="translate(0 -952.95)" gradientUnits="userSpaceOnUse">
      <stop offset="0" stop-color="#905cfb"/>
      <stop offset=".07" stop-color="#a554e6"/>
      <stop offset=".25" stop-color="#d641b5"/>
      <stop offset=".39" stop-color="#f43597"/>
      <stop offset=".47" stop-color="#ff318c"/>
    </linearGradient>
    <linearGradient id="linear-gradient-3" x1="4.98" y1="1011.64" x2="74.02" y2="968.13" gradientTransform="translate(0 -952.95)" gradientUnits="userSpaceOnUse">
      <stop offset="0" stop-color="#905cfb"/>
      <stop offset=".16" stop-color="#6677f8"/>
      <stop offset=".38" stop-color="#3596f5"/>
      <stop offset=".54" stop-color="#17a9f3"/>
      <stop offset=".63" stop-color="#0cb0f2"/>
    </linearGradient>
  </defs>
  <g>
    <g>
      <path class="cls-4" d="M66.9,47.5c-.2-.2-13.1-12.6-13.1-12.6,0,0,9.8-10.4,12.4-13,.8-.8,1.5-1.6,2-2.6,3.6-6.1,1.5-13.9-4.6-17.5-4.5-2.6-10.1-2.2-14.1.8-.7.5-1.3,1-1.9,1.6-.3.4-13.9,12.8-25.7,23.6l22.1,14-23.2,26.1c-1.4,1-2.8,1.6-4.3,1.9.3,0,.5,0,.8-.1,4.6-.7,43.9-7.3,45.8-7.7,2.3-.4,4.4-1.8,5.7-3.9,2.2-3.6,1.2-8.1-1.9-10.6Z"/>
      <path class="cls-1" d="M45.9,30.5c-.4-2.7-1.8-4.9-3.8-6.5-2.1-1.6-18.3-18.4-20.1-20.3C19.2,1,15.2-.5,11.1.2,4.1,1.2-.8,7.8.3,14.8c.5,3.5,2.5,6.5,5.1,8.4,2.6,2,23,16,24.3,17,2.1,1.6,4.9,2.5,7.7,2,5.5-1,9.4-6.2,8.5-11.7Z"/>
    </g>
    <path class="cls-3" d="M23,67.8c.1,0,23.3-26.1,23.3-26.1l-23.4-14.8c-8.3,7.6-16,14.5-17.8,16.2-1.1,1-2.2,2.3-3,3.7-4.3,7.4-1.8,16.8,5.6,21.1,3,1.7,9.8,3.8,15.3-.1Z"/>
  </g>
  <g>
    <rect x="13.4" y="13.4" width="43.2" height="43.2"/>
    <rect class="cls-2" x="17.4" y="48.5" width="16.2" height="2.7"/>
    <polygon class="cls-2" points="23.8 29.9 17 19.1 21.6 19.1 25.8 26.2 30.2 19.1 34.7 19.1 27.8 29.8 27.8 37 23.8 37 23.8 29.9"/>
    <polygon class="cls-2" points="41.6 22.7 36.1 22.7 36.1 19.1 51 19.1 51 22.7 45.5 22.7 45.5 37 41.6 37 41.6 22.7"/>
  </g>
</svg>